<svg version="1.2" xmlns="http://www.w3.org/2000/svg" viewBox="0 0 1566 1547" width="1566" height="1547">
	<title>header-logo-svg</title>
	<style>
		.s0 { fill: #3d1152 } 
	</style>
	<g id="Layer">
		<g id="Layer">
			<path id="Layer" fill-rule="evenodd" class="s0" d="m1565.7 1530.1c-0.2 2.9-1.2 5.7-2.7 8.1-1.6 2.4-3.8 4.4-6.3 5.8-2.5 1.4-5.4 2.1-8.3 2.2h-202.5q-2.5 0-5-0.8-2.4-0.7-4.5-2.1-2.1-1.4-3.7-3.3-1.7-1.9-2.7-4.2l-140.5-321.5h-590l-138.8 321.7q-1 2.3-2.7 4.3-1.6 1.9-3.7 3.3-2.2 1.3-4.6 2-2.4 0.8-5 0.7h-202.6c-3 0.1-5.9-0.7-8.4-2.1-2.6-1.4-4.8-3.4-6.4-5.9-1.6-2.5-2.5-5.3-2.7-8.3-0.2-2.9 0.3-5.8 1.6-8.5l132.3-307.2h-262.7q-2.1 0-4-0.6-2-0.5-3.7-1.7-1.7-1.1-3-2.6-1.3-1.6-2.1-3.5l-81.7-188.8c-1-2.4-1.4-4.9-1.2-7.5 0.2-2.5 1.1-5 2.5-7.1 1.4-2.2 3.3-3.9 5.6-5.1 2.2-1.2 4.7-1.9 7.3-1.9h437.3l424.2-984.9c1.4-3 3.6-5.6 6.4-7.4 2.9-1.9 6.1-2.8 9.5-2.8 3.3 0 6.6 0.9 9.5 2.8 2.8 1.8 5 4.4 6.4 7.4l655.8 1511.1c0.9 2.6 1.4 5.5 1.1 8.4zm-471.7-534.6l-185.1-423.7c-1.4-3.1-3.6-5.7-6.5-7.5-2.8-1.9-6.1-2.9-9.5-2.9-3.4 0-6.7 1-9.5 2.9-2.8 1.8-5.1 4.4-6.4 7.5l-183 423.7z"/>
		</g>
	</g>
</svg>