<svg id="Layer_1" data-name="Layer 1" xmlns="http://www.w3.org/2000/svg" viewBox="0 0 300 300"><defs><style>.cls-1{fill:#2b2b2b;}.cls-2{fill:#686868;}</style></defs><rect class="cls-1" width="300" height="300"/><circle class="cls-2" cx="0.5" cy="0.5" r="0.5"/><circle class="cls-2" cx="15.5" cy="0.5" r="0.5"/><circle class="cls-2" cx="30.5" cy="0.5" r="0.5"/><circle class="cls-2" cx="45.5" cy="0.5" r="0.5"/><circle class="cls-2" cx="60.5" cy="0.5" r="0.5"/><circle class="cls-2" cx="75.5" cy="0.5" r="0.5"/><circle class="cls-2" cx="90.5" cy="0.5" r="0.5"/><circle class="cls-2" cx="105.5" cy="0.5" r="0.5"/><circle class="cls-2" cx="120.5" cy="0.5" r="0.5"/><circle class="cls-2" cx="135.5" cy="0.5" r="0.5"/><circle class="cls-2" cx="150.5" cy="0.5" r="0.5"/><circle class="cls-2" cx="165.5" cy="0.5" r="0.5"/><circle class="cls-2" cx="180.5" cy="0.5" r="0.5"/><circle class="cls-2" cx="195.5" cy="0.5" r="0.5"/><circle class="cls-2" cx="210.5" cy="0.5" r="0.5"/><circle class="cls-2" cx="225.5" cy="0.5" r="0.5"/><circle class="cls-2" cx="240.5" cy="0.5" r="0.5"/><circle class="cls-2" cx="255.5" cy="0.5" r="0.5"/><circle class="cls-2" cx="270.5" cy="0.5" r="0.5"/><circle class="cls-2" cx="285.5" cy="0.5" r="0.5"/><circle class="cls-2" cx="0.5" cy="15.5" r="0.5"/><circle class="cls-2" cx="15.5" cy="15.5" r="0.5"/><circle class="cls-2" cx="30.5" cy="15.5" r="0.5"/><circle class="cls-2" cx="45.5" cy="15.5" r="0.5"/><circle class="cls-2" cx="60.5" cy="15.5" r="0.5"/><circle class="cls-2" cx="75.5" cy="15.5" r="0.5"/><circle class="cls-2" cx="90.5" cy="15.5" r="0.5"/><circle class="cls-2" cx="105.5" cy="15.5" r="0.5"/><circle class="cls-2" cx="120.5" cy="15.5" r="0.5"/><circle class="cls-2" cx="135.5" cy="15.5" r="0.5"/><circle class="cls-2" cx="150.5" cy="15.5" r="0.5"/><circle class="cls-2" cx="165.5" cy="15.5" r="0.5"/><circle class="cls-2" cx="180.5" cy="15.5" r="0.5"/><circle class="cls-2" cx="195.5" cy="15.5" r="0.5"/><circle class="cls-2" cx="210.5" cy="15.5" r="0.5"/><circle class="cls-2" cx="225.5" cy="15.5" r="0.5"/><circle class="cls-2" cx="240.5" cy="15.5" r="0.5"/><circle class="cls-2" cx="255.5" cy="15.5" r="0.5"/><circle class="cls-2" cx="270.5" cy="15.5" r="0.5"/><circle class="cls-2" cx="285.5" cy="15.5" r="0.5"/><circle class="cls-2" cx="0.5" cy="30.5" r="0.5"/><circle class="cls-2" cx="15.5" cy="30.5" r="0.5"/><circle class="cls-2" cx="30.5" cy="30.5" r="0.5"/><circle class="cls-2" cx="45.5" cy="30.5" r="0.5"/><circle class="cls-2" cx="60.5" cy="30.5" r="0.5"/><circle class="cls-2" cx="75.5" cy="30.5" r="0.5"/><circle class="cls-2" cx="90.5" cy="30.5" r="0.5"/><circle class="cls-2" cx="105.5" cy="30.5" r="0.5"/><circle class="cls-2" cx="120.5" cy="30.5" r="0.5"/><circle class="cls-2" cx="135.5" cy="30.5" r="0.5"/><circle class="cls-2" cx="150.5" cy="30.5" r="0.5"/><circle class="cls-2" cx="165.5" cy="30.5" r="0.5"/><circle class="cls-2" cx="180.5" cy="30.5" r="0.5"/><circle class="cls-2" cx="195.5" cy="30.5" r="0.5"/><circle class="cls-2" cx="210.5" cy="30.5" r="0.5"/><circle class="cls-2" cx="225.5" cy="30.5" r="0.5"/><circle class="cls-2" cx="240.5" cy="30.5" r="0.5"/><circle class="cls-2" cx="255.5" cy="30.5" r="0.5"/><circle class="cls-2" cx="270.5" cy="30.5" r="0.5"/><circle class="cls-2" cx="285.5" cy="30.5" r="0.5"/><circle class="cls-2" cx="0.5" cy="45.5" r="0.5"/><circle class="cls-2" cx="15.5" cy="45.5" r="0.5"/><circle class="cls-2" cx="30.5" cy="45.5" r="0.5"/><circle class="cls-2" cx="45.5" cy="45.5" r="0.5"/><circle class="cls-2" cx="60.5" cy="45.5" r="0.5"/><circle class="cls-2" cx="75.5" cy="45.5" r="0.5"/><circle class="cls-2" cx="90.5" cy="45.5" r="0.5"/><circle class="cls-2" cx="105.5" cy="45.5" r="0.5"/><circle class="cls-2" cx="120.5" cy="45.5" r="0.5"/><circle class="cls-2" cx="135.5" cy="45.5" r="0.5"/><circle class="cls-2" cx="150.5" cy="45.5" r="0.5"/><circle class="cls-2" cx="165.5" cy="45.5" r="0.5"/><circle class="cls-2" cx="180.5" cy="45.5" r="0.5"/><circle class="cls-2" cx="195.5" cy="45.5" r="0.5"/><circle class="cls-2" cx="210.5" cy="45.5" r="0.5"/><circle class="cls-2" cx="225.5" cy="45.5" r="0.5"/><circle class="cls-2" cx="240.5" cy="45.5" r="0.5"/><circle class="cls-2" cx="255.5" cy="45.5" r="0.5"/><circle class="cls-2" cx="270.5" cy="45.5" r="0.5"/><circle class="cls-2" cx="285.5" cy="45.5" r="0.5"/><circle class="cls-2" cx="0.5" cy="60.5" r="0.5"/><circle class="cls-2" cx="15.5" cy="60.5" r="0.5"/><circle class="cls-2" cx="30.5" cy="60.5" r="0.5"/><circle class="cls-2" cx="45.5" cy="60.5" r="0.5"/><circle class="cls-2" cx="60.5" cy="60.5" r="0.5"/><circle class="cls-2" cx="75.5" cy="60.5" r="0.5"/><circle class="cls-2" cx="90.5" cy="60.5" r="0.5"/><circle class="cls-2" cx="105.5" cy="60.5" r="0.5"/><circle class="cls-2" cx="120.5" cy="60.5" r="0.5"/><circle class="cls-2" cx="135.5" cy="60.5" r="0.5"/><circle class="cls-2" cx="150.5" cy="60.5" r="0.5"/><circle class="cls-2" cx="165.5" cy="60.5" r="0.5"/><circle class="cls-2" cx="180.5" cy="60.5" r="0.5"/><circle class="cls-2" cx="195.5" cy="60.5" r="0.5"/><circle class="cls-2" cx="210.5" cy="60.5" r="0.5"/><circle class="cls-2" cx="225.5" cy="60.5" r="0.5"/><circle class="cls-2" cx="240.5" cy="60.5" r="0.5"/><circle class="cls-2" cx="255.5" cy="60.5" r="0.5"/><circle class="cls-2" cx="270.5" cy="60.5" r="0.5"/><circle class="cls-2" cx="285.5" cy="60.5" r="0.5"/><circle class="cls-2" cx="0.5" cy="75.5" r="0.5"/><circle class="cls-2" cx="15.5" cy="75.5" r="0.5"/><circle class="cls-2" cx="30.5" cy="75.5" r="0.5"/><circle class="cls-2" cx="45.5" cy="75.5" r="0.5"/><circle class="cls-2" cx="60.5" cy="75.5" r="0.5"/><circle class="cls-2" cx="75.5" cy="75.5" r="0.5"/><circle class="cls-2" cx="90.5" cy="75.5" r="0.5"/><circle class="cls-2" cx="105.5" cy="75.5" r="0.5"/><circle class="cls-2" cx="120.5" cy="75.5" r="0.5"/><circle class="cls-2" cx="135.5" cy="75.5" r="0.5"/><circle class="cls-2" cx="150.5" cy="75.5" r="0.5"/><circle class="cls-2" cx="165.5" cy="75.5" r="0.5"/><circle class="cls-2" cx="180.5" cy="75.5" r="0.5"/><circle class="cls-2" cx="195.5" cy="75.5" r="0.5"/><circle class="cls-2" cx="210.5" cy="75.5" r="0.5"/><circle class="cls-2" cx="225.5" cy="75.5" r="0.5"/><circle class="cls-2" cx="240.5" cy="75.5" r="0.5"/><circle class="cls-2" cx="255.5" cy="75.5" r="0.5"/><circle class="cls-2" cx="270.5" cy="75.5" r="0.5"/><circle class="cls-2" cx="285.5" cy="75.5" r="0.5"/><circle class="cls-2" cx="0.5" cy="90.5" r="0.5"/><circle class="cls-2" cx="15.5" cy="90.5" r="0.5"/><circle class="cls-2" cx="30.5" cy="90.5" r="0.5"/><circle class="cls-2" cx="45.5" cy="90.5" r="0.5"/><circle class="cls-2" cx="60.5" cy="90.5" r="0.5"/><circle class="cls-2" cx="75.5" cy="90.5" r="0.5"/><circle class="cls-2" cx="90.5" cy="90.5" r="0.5"/><circle class="cls-2" cx="105.5" cy="90.5" r="0.5"/><circle class="cls-2" cx="120.5" cy="90.5" r="0.5"/><circle class="cls-2" cx="135.5" cy="90.5" r="0.5"/><circle class="cls-2" cx="150.5" cy="90.5" r="0.5"/><circle class="cls-2" cx="165.5" cy="90.5" r="0.5"/><circle class="cls-2" cx="180.5" cy="90.5" r="0.5"/><circle class="cls-2" cx="195.5" cy="90.5" r="0.5"/><circle class="cls-2" cx="210.5" cy="90.5" r="0.5"/><circle class="cls-2" cx="225.5" cy="90.5" r="0.5"/><circle class="cls-2" cx="240.5" cy="90.5" r="0.5"/><circle class="cls-2" cx="255.5" cy="90.5" r="0.5"/><circle class="cls-2" cx="270.5" cy="90.5" r="0.5"/><circle class="cls-2" cx="285.5" cy="90.5" r="0.5"/><circle class="cls-2" cx="0.5" cy="105.5" r="0.5"/><circle class="cls-2" cx="15.5" cy="105.5" r="0.5"/><circle class="cls-2" cx="30.5" cy="105.5" r="0.5"/><circle class="cls-2" cx="45.5" cy="105.5" r="0.5"/><circle class="cls-2" cx="60.5" cy="105.5" r="0.5"/><circle class="cls-2" cx="75.5" cy="105.5" r="0.5"/><circle class="cls-2" cx="90.5" cy="105.5" r="0.5"/><circle class="cls-2" cx="105.5" cy="105.5" r="0.5"/><circle class="cls-2" cx="120.5" cy="105.5" r="0.5"/><circle class="cls-2" cx="135.5" cy="105.5" r="0.5"/><circle class="cls-2" cx="150.5" cy="105.5" r="0.5"/><circle class="cls-2" cx="165.5" cy="105.5" r="0.5"/><circle class="cls-2" cx="180.5" cy="105.5" r="0.5"/><circle class="cls-2" cx="195.5" cy="105.5" r="0.5"/><circle class="cls-2" cx="210.5" cy="105.5" r="0.5"/><circle class="cls-2" cx="225.5" cy="105.5" r="0.5"/><circle class="cls-2" cx="240.5" cy="105.5" r="0.5"/><circle class="cls-2" cx="255.5" cy="105.5" r="0.5"/><circle class="cls-2" cx="270.5" cy="105.5" r="0.5"/><circle class="cls-2" cx="285.5" cy="105.5" r="0.5"/><circle class="cls-2" cx="0.5" cy="120.5" r="0.5"/><circle class="cls-2" cx="15.5" cy="120.5" r="0.5"/><circle class="cls-2" cx="30.5" cy="120.5" r="0.5"/><circle class="cls-2" cx="45.5" cy="120.5" r="0.5"/><circle class="cls-2" cx="60.5" cy="120.5" r="0.5"/><circle class="cls-2" cx="75.5" cy="120.5" r="0.5"/><circle class="cls-2" cx="90.5" cy="120.5" r="0.5"/><circle class="cls-2" cx="105.5" cy="120.5" r="0.5"/><circle class="cls-2" cx="120.5" cy="120.5" r="0.5"/><circle class="cls-2" cx="135.5" cy="120.5" r="0.5"/><circle class="cls-2" cx="150.5" cy="120.5" r="0.5"/><circle class="cls-2" cx="165.5" cy="120.5" r="0.5"/><circle class="cls-2" cx="180.5" cy="120.5" r="0.5"/><circle class="cls-2" cx="195.5" cy="120.5" r="0.5"/><circle class="cls-2" cx="210.5" cy="120.5" r="0.5"/><circle class="cls-2" cx="225.5" cy="120.5" r="0.5"/><circle class="cls-2" cx="240.5" cy="120.5" r="0.5"/><circle class="cls-2" cx="255.5" cy="120.5" r="0.5"/><circle class="cls-2" cx="270.5" cy="120.5" r="0.5"/><circle class="cls-2" cx="285.5" cy="120.5" r="0.5"/><circle class="cls-2" cx="0.5" cy="135.5" r="0.5"/><circle class="cls-2" cx="15.5" cy="135.5" r="0.5"/><circle class="cls-2" cx="30.5" cy="135.5" r="0.5"/><circle class="cls-2" cx="45.5" cy="135.5" r="0.5"/><circle class="cls-2" cx="60.5" cy="135.5" r="0.5"/><circle class="cls-2" cx="75.5" cy="135.5" r="0.5"/><circle class="cls-2" cx="90.5" cy="135.5" r="0.5"/><circle class="cls-2" cx="105.5" cy="135.5" r="0.5"/><circle class="cls-2" cx="120.5" cy="135.5" r="0.5"/><circle class="cls-2" cx="135.5" cy="135.5" r="0.5"/><circle class="cls-2" cx="150.5" cy="135.5" r="0.5"/><circle class="cls-2" cx="165.5" cy="135.5" r="0.5"/><circle class="cls-2" cx="180.5" cy="135.5" r="0.5"/><circle class="cls-2" cx="195.5" cy="135.5" r="0.5"/><circle class="cls-2" cx="210.5" cy="135.5" r="0.5"/><circle class="cls-2" cx="225.5" cy="135.5" r="0.5"/><circle class="cls-2" cx="240.5" cy="135.5" r="0.5"/><circle class="cls-2" cx="255.5" cy="135.5" r="0.5"/><circle class="cls-2" cx="270.5" cy="135.5" r="0.5"/><circle class="cls-2" cx="285.5" cy="135.5" r="0.5"/><circle class="cls-2" cx="0.5" cy="150.5" r="0.5"/><circle class="cls-2" cx="15.5" cy="150.5" r="0.5"/><circle class="cls-2" cx="30.5" cy="150.5" r="0.5"/><circle class="cls-2" cx="45.5" cy="150.5" r="0.5"/><circle class="cls-2" cx="60.5" cy="150.5" r="0.5"/><circle class="cls-2" cx="75.5" cy="150.5" r="0.5"/><circle class="cls-2" cx="90.5" cy="150.5" r="0.5"/><circle class="cls-2" cx="105.5" cy="150.5" r="0.5"/><circle class="cls-2" cx="120.5" cy="150.5" r="0.5"/><circle class="cls-2" cx="135.5" cy="150.5" r="0.5"/><circle class="cls-2" cx="150.5" cy="150.5" r="0.5"/><circle class="cls-2" cx="165.5" cy="150.5" r="0.5"/><circle class="cls-2" cx="180.5" cy="150.5" r="0.5"/><circle class="cls-2" cx="195.5" cy="150.5" r="0.5"/><circle class="cls-2" cx="210.5" cy="150.5" r="0.5"/><circle class="cls-2" cx="225.5" cy="150.5" r="0.5"/><circle class="cls-2" cx="240.5" cy="150.5" r="0.5"/><circle class="cls-2" cx="255.5" cy="150.5" r="0.5"/><circle class="cls-2" cx="270.5" cy="150.5" r="0.5"/><circle class="cls-2" cx="285.5" cy="150.5" r="0.5"/><circle class="cls-2" cx="0.5" cy="165.5" r="0.5"/><circle class="cls-2" cx="15.5" cy="165.5" r="0.5"/><circle class="cls-2" cx="30.5" cy="165.5" r="0.5"/><circle class="cls-2" cx="45.5" cy="165.5" r="0.5"/><circle class="cls-2" cx="60.5" cy="165.5" r="0.5"/><circle class="cls-2" cx="75.5" cy="165.5" r="0.5"/><circle class="cls-2" cx="90.5" cy="165.5" r="0.5"/><circle class="cls-2" cx="105.5" cy="165.5" r="0.5"/><circle class="cls-2" cx="120.5" cy="165.5" r="0.5"/><circle class="cls-2" cx="135.5" cy="165.5" r="0.5"/><circle class="cls-2" cx="150.5" cy="165.5" r="0.5"/><circle class="cls-2" cx="165.5" cy="165.5" r="0.5"/><circle class="cls-2" cx="180.5" cy="165.5" r="0.5"/><circle class="cls-2" cx="195.5" cy="165.5" r="0.5"/><circle class="cls-2" cx="210.5" cy="165.5" r="0.5"/><circle class="cls-2" cx="225.5" cy="165.5" r="0.5"/><circle class="cls-2" cx="240.5" cy="165.5" r="0.5"/><circle class="cls-2" cx="255.5" cy="165.5" r="0.5"/><circle class="cls-2" cx="270.5" cy="165.5" r="0.5"/><circle class="cls-2" cx="285.5" cy="165.5" r="0.5"/><circle class="cls-2" cx="0.5" cy="180.5" r="0.5"/><circle class="cls-2" cx="15.5" cy="180.5" r="0.5"/><circle class="cls-2" cx="30.5" cy="180.5" r="0.5"/><circle class="cls-2" cx="45.5" cy="180.5" r="0.5"/><circle class="cls-2" cx="60.5" cy="180.5" r="0.5"/><circle class="cls-2" cx="75.5" cy="180.5" r="0.5"/><circle class="cls-2" cx="90.5" cy="180.5" r="0.5"/><circle class="cls-2" cx="105.5" cy="180.5" r="0.5"/><circle class="cls-2" cx="120.5" cy="180.5" r="0.5"/><circle class="cls-2" cx="135.5" cy="180.5" r="0.5"/><circle class="cls-2" cx="150.5" cy="180.5" r="0.5"/><circle class="cls-2" cx="165.5" cy="180.5" r="0.5"/><circle class="cls-2" cx="180.5" cy="180.5" r="0.5"/><circle class="cls-2" cx="195.5" cy="180.5" r="0.5"/><circle class="cls-2" cx="210.5" cy="180.5" r="0.5"/><circle class="cls-2" cx="225.5" cy="180.5" r="0.5"/><circle class="cls-2" cx="240.5" cy="180.5" r="0.5"/><circle class="cls-2" cx="255.5" cy="180.5" r="0.5"/><circle class="cls-2" cx="270.5" cy="180.5" r="0.5"/><circle class="cls-2" cx="285.5" cy="180.5" r="0.5"/><circle class="cls-2" cx="0.5" cy="195.5" r="0.5"/><circle class="cls-2" cx="15.5" cy="195.5" r="0.5"/><circle class="cls-2" cx="30.5" cy="195.5" r="0.5"/><circle class="cls-2" cx="45.5" cy="195.5" r="0.5"/><circle class="cls-2" cx="60.5" cy="195.5" r="0.5"/><circle class="cls-2" cx="75.5" cy="195.5" r="0.5"/><circle class="cls-2" cx="90.5" cy="195.5" r="0.5"/><circle class="cls-2" cx="105.5" cy="195.5" r="0.5"/><circle class="cls-2" cx="120.5" cy="195.5" r="0.5"/><circle class="cls-2" cx="135.5" cy="195.5" r="0.5"/><circle class="cls-2" cx="150.5" cy="195.5" r="0.5"/><circle class="cls-2" cx="165.5" cy="195.5" r="0.5"/><circle class="cls-2" cx="180.5" cy="195.5" r="0.5"/><circle class="cls-2" cx="195.5" cy="195.5" r="0.5"/><circle class="cls-2" cx="210.5" cy="195.5" r="0.5"/><circle class="cls-2" cx="225.5" cy="195.5" r="0.5"/><circle class="cls-2" cx="240.5" cy="195.5" r="0.5"/><circle class="cls-2" cx="255.5" cy="195.5" r="0.5"/><circle class="cls-2" cx="270.5" cy="195.5" r="0.5"/><circle class="cls-2" cx="285.5" cy="195.5" r="0.5"/><circle class="cls-2" cx="0.5" cy="210.5" r="0.5"/><circle class="cls-2" cx="15.5" cy="210.5" r="0.5"/><circle class="cls-2" cx="30.5" cy="210.5" r="0.5"/><circle class="cls-2" cx="45.5" cy="210.5" r="0.5"/><circle class="cls-2" cx="60.5" cy="210.5" r="0.5"/><circle class="cls-2" cx="75.5" cy="210.5" r="0.5"/><circle class="cls-2" cx="90.5" cy="210.5" r="0.5"/><circle class="cls-2" cx="105.5" cy="210.5" r="0.5"/><circle class="cls-2" cx="120.5" cy="210.5" r="0.5"/><circle class="cls-2" cx="135.5" cy="210.5" r="0.5"/><circle class="cls-2" cx="150.5" cy="210.5" r="0.5"/><circle class="cls-2" cx="165.5" cy="210.5" r="0.5"/><circle class="cls-2" cx="180.5" cy="210.5" r="0.5"/><circle class="cls-2" cx="195.5" cy="210.5" r="0.5"/><circle class="cls-2" cx="210.5" cy="210.5" r="0.5"/><circle class="cls-2" cx="225.5" cy="210.5" r="0.5"/><circle class="cls-2" cx="240.5" cy="210.5" r="0.5"/><circle class="cls-2" cx="255.5" cy="210.5" r="0.5"/><circle class="cls-2" cx="270.5" cy="210.5" r="0.5"/><circle class="cls-2" cx="285.5" cy="210.5" r="0.5"/><circle class="cls-2" cx="0.5" cy="225.5" r="0.5"/><circle class="cls-2" cx="15.5" cy="225.5" r="0.5"/><circle class="cls-2" cx="30.5" cy="225.5" r="0.5"/><circle class="cls-2" cx="45.5" cy="225.5" r="0.5"/><circle class="cls-2" cx="60.5" cy="225.5" r="0.5"/><circle class="cls-2" cx="75.5" cy="225.5" r="0.5"/><circle class="cls-2" cx="90.5" cy="225.5" r="0.5"/><circle class="cls-2" cx="105.5" cy="225.5" r="0.5"/><circle class="cls-2" cx="120.5" cy="225.5" r="0.5"/><circle class="cls-2" cx="135.5" cy="225.5" r="0.5"/><circle class="cls-2" cx="150.5" cy="225.5" r="0.5"/><circle class="cls-2" cx="165.5" cy="225.5" r="0.5"/><circle class="cls-2" cx="180.5" cy="225.5" r="0.5"/><circle class="cls-2" cx="195.5" cy="225.5" r="0.5"/><circle class="cls-2" cx="210.5" cy="225.5" r="0.5"/><circle class="cls-2" cx="225.5" cy="225.5" r="0.5"/><circle class="cls-2" cx="240.5" cy="225.5" r="0.5"/><circle class="cls-2" cx="255.5" cy="225.5" r="0.5"/><circle class="cls-2" cx="270.5" cy="225.5" r="0.5"/><circle class="cls-2" cx="285.5" cy="225.5" r="0.5"/><circle class="cls-2" cx="0.5" cy="240.5" r="0.5"/><circle class="cls-2" cx="15.5" cy="240.5" r="0.5"/><circle class="cls-2" cx="30.5" cy="240.5" r="0.5"/><circle class="cls-2" cx="45.5" cy="240.5" r="0.5"/><circle class="cls-2" cx="60.5" cy="240.5" r="0.5"/><circle class="cls-2" cx="75.5" cy="240.5" r="0.5"/><circle class="cls-2" cx="90.5" cy="240.5" r="0.5"/><circle class="cls-2" cx="105.5" cy="240.5" r="0.5"/><circle class="cls-2" cx="120.5" cy="240.5" r="0.5"/><circle class="cls-2" cx="135.5" cy="240.5" r="0.5"/><circle class="cls-2" cx="150.5" cy="240.5" r="0.5"/><circle class="cls-2" cx="165.5" cy="240.5" r="0.5"/><circle class="cls-2" cx="180.5" cy="240.5" r="0.5"/><circle class="cls-2" cx="195.5" cy="240.5" r="0.5"/><circle class="cls-2" cx="210.5" cy="240.5" r="0.5"/><circle class="cls-2" cx="225.5" cy="240.5" r="0.5"/><circle class="cls-2" cx="240.5" cy="240.5" r="0.5"/><circle class="cls-2" cx="255.5" cy="240.5" r="0.5"/><circle class="cls-2" cx="270.5" cy="240.5" r="0.5"/><circle class="cls-2" cx="285.5" cy="240.5" r="0.5"/><circle class="cls-2" cx="0.5" cy="255.5" r="0.5"/><circle class="cls-2" cx="15.5" cy="255.5" r="0.5"/><circle class="cls-2" cx="30.5" cy="255.5" r="0.5"/><circle class="cls-2" cx="45.5" cy="255.5" r="0.5"/><circle class="cls-2" cx="60.5" cy="255.5" r="0.5"/><circle class="cls-2" cx="75.5" cy="255.5" r="0.5"/><circle class="cls-2" cx="90.5" cy="255.5" r="0.5"/><circle class="cls-2" cx="105.5" cy="255.5" r="0.5"/><circle class="cls-2" cx="120.5" cy="255.5" r="0.5"/><circle class="cls-2" cx="135.5" cy="255.5" r="0.5"/><circle class="cls-2" cx="150.5" cy="255.5" r="0.5"/><circle class="cls-2" cx="165.5" cy="255.5" r="0.5"/><circle class="cls-2" cx="180.5" cy="255.5" r="0.5"/><circle class="cls-2" cx="195.5" cy="255.5" r="0.5"/><circle class="cls-2" cx="210.5" cy="255.5" r="0.5"/><circle class="cls-2" cx="225.5" cy="255.5" r="0.5"/><circle class="cls-2" cx="240.5" cy="255.5" r="0.5"/><circle class="cls-2" cx="255.5" cy="255.5" r="0.5"/><circle class="cls-2" cx="270.5" cy="255.5" r="0.5"/><circle class="cls-2" cx="285.5" cy="255.5" r="0.5"/><circle class="cls-2" cx="0.5" cy="270.5" r="0.5"/><circle class="cls-2" cx="15.5" cy="270.5" r="0.5"/><circle class="cls-2" cx="30.5" cy="270.5" r="0.5"/><circle class="cls-2" cx="45.5" cy="270.5" r="0.5"/><circle class="cls-2" cx="60.5" cy="270.5" r="0.5"/><circle class="cls-2" cx="75.5" cy="270.5" r="0.5"/><circle class="cls-2" cx="90.5" cy="270.5" r="0.5"/><circle class="cls-2" cx="105.5" cy="270.5" r="0.5"/><circle class="cls-2" cx="120.5" cy="270.5" r="0.5"/><circle class="cls-2" cx="135.5" cy="270.5" r="0.5"/><circle class="cls-2" cx="150.5" cy="270.5" r="0.5"/><circle class="cls-2" cx="165.5" cy="270.5" r="0.5"/><circle class="cls-2" cx="180.5" cy="270.5" r="0.5"/><circle class="cls-2" cx="195.5" cy="270.5" r="0.5"/><circle class="cls-2" cx="210.5" cy="270.5" r="0.5"/><circle class="cls-2" cx="225.5" cy="270.5" r="0.5"/><circle class="cls-2" cx="240.5" cy="270.5" r="0.5"/><circle class="cls-2" cx="255.5" cy="270.5" r="0.5"/><circle class="cls-2" cx="270.5" cy="270.5" r="0.5"/><circle class="cls-2" cx="285.5" cy="270.5" r="0.5"/><circle class="cls-2" cx="0.5" cy="285.5" r="0.5"/><circle class="cls-2" cx="15.5" cy="285.5" r="0.5"/><circle class="cls-2" cx="30.5" cy="285.5" r="0.5"/><circle class="cls-2" cx="45.5" cy="285.5" r="0.5"/><circle class="cls-2" cx="60.5" cy="285.5" r="0.5"/><circle class="cls-2" cx="75.5" cy="285.5" r="0.5"/><circle class="cls-2" cx="90.5" cy="285.5" r="0.5"/><circle class="cls-2" cx="105.5" cy="285.5" r="0.5"/><circle class="cls-2" cx="120.5" cy="285.5" r="0.5"/><circle class="cls-2" cx="135.5" cy="285.5" r="0.5"/><circle class="cls-2" cx="150.5" cy="285.5" r="0.5"/><circle class="cls-2" cx="165.5" cy="285.5" r="0.5"/><circle class="cls-2" cx="180.5" cy="285.5" r="0.5"/><circle class="cls-2" cx="195.5" cy="285.5" r="0.5"/><circle class="cls-2" cx="210.5" cy="285.5" r="0.5"/><circle class="cls-2" cx="225.5" cy="285.5" r="0.5"/><circle class="cls-2" cx="240.5" cy="285.5" r="0.5"/><circle class="cls-2" cx="255.5" cy="285.5" r="0.5"/><circle class="cls-2" cx="270.5" cy="285.5" r="0.5"/><circle class="cls-2" cx="285.5" cy="285.5" r="0.5"/></svg>