<?xml version="1.0" standalone="no"?>
<!DOCTYPE svg PUBLIC "-//W3C//DTD SVG 20010904//EN"
 "http://www.w3.org/TR/2001/REC-SVG-20010904/DTD/svg10.dtd">
<svg version="1.0" xmlns="http://www.w3.org/2000/svg"
 width="64.000000pt" height="64.000000pt" viewBox="0 0 64.000000 64.000000"
 preserveAspectRatio="xMidYMid meet">

<g transform="translate(0.000000,64.000000) scale(0.100000,-0.100000)"
fill="#000000" stroke="none">
<path d="M450 595 l-34 -35 72 -72 72 -72 35 34 c19 19 35 39 35 45 0 13 -122
135 -136 135 -5 0 -25 -16 -44 -35z"/>
<path d="M225 370 l-160 -160 73 -72 72 -73 160 160 c88 88 160 164 160 170 0
13 -122 135 -135 135 -6 0 -82 -72 -170 -160z"/>
<path d="M32 116 c-21 -110 -24 -105 66 -88 42 7 79 16 81 18 5 5 -120 134
-129 134 -4 0 -12 -29 -18 -64z"/>
</g>
</svg>
